<svg xmlns="http://www.w3.org/2000/svg" xmlns:xlink="http://www.w3.org/1999/xlink" width="1350" zoomAndPan="magnify" viewBox="0 0 1012.5 809.999993" height="1080" preserveAspectRatio="xMidYMid meet" version="1.2"><defs><clipPath id="55e73cf8a8"><rect x="0" width="797" y="0" height="587"/></clipPath></defs><g id="662646682b"><g transform="matrix(1,0,0,1,110,109)"><g clip-path="url(#55e73cf8a8)"><g style="fill:#584876;fill-opacity:1;"><g transform="translate(0.253945, 349.700446)"><path style="stroke:none" d="M 20.9375 -60.3125 C 18.800781 -53.332031 17.226562 -47.566406 16.21875 -43.015625 C 15.21875 -38.460938 14.78125 -33.941406 14.90625 -29.453125 C 14.90625 -20.109375 17.296875 -12.300781 22.078125 -6.03125 C 26.867188 0.238281 33.460938 3.375 41.859375 3.375 C 51.679688 3.375 60.460938 0.414062 68.203125 -5.5 C 75.953125 -11.414062 83.078125 -19.101562 89.578125 -28.5625 L 100.40625 -44.34375 L 88.875 -52.328125 L 78.765625 -37.078125 C 69.421875 -23.117188 61.203125 -16.140625 54.109375 -16.140625 C 50.910156 -16.140625 48.515625 -17.46875 46.921875 -20.125 C 45.328125 -22.789062 44.53125 -26.078125 44.53125 -29.984375 C 44.53125 -33.878906 45.414062 -39.082031 47.1875 -45.59375 L 93.3125 -217.65625 C 93.425781 -218.363281 93.894531 -220.460938 94.71875 -223.953125 C 95.550781 -227.441406 95.96875 -230.132812 95.96875 -232.03125 C 95.96875 -234.269531 95.460938 -235.863281 94.453125 -236.8125 C 93.453125 -237.757812 91.945312 -238.234375 89.9375 -238.234375 C 89.226562 -238.234375 88.046875 -238.113281 86.390625 -237.875 L 76.453125 -236.640625 C 63.921875 -235.097656 54.816406 -233.882812 49.140625 -233 C 43.460938 -232.113281 39.023438 -230.988281 35.828125 -229.625 C 32.640625 -228.269531 31.046875 -226.46875 31.046875 -224.21875 C 31.046875 -221.144531 32.460938 -219.375 35.296875 -218.90625 L 63.859375 -217.125 L 23.0625 -67.765625 Z M 20.9375 -60.3125 "/></g></g><g style="fill:#584876;fill-opacity:1;"><g transform="translate(83.679779, 349.700446)"><path style="stroke:none" d="M 85.859375 -136.59375 C 85.859375 -143.445312 84.082031 -148.738281 80.53125 -152.46875 C 76.988281 -156.195312 71.132812 -158.0625 62.96875 -158.0625 C 51.03125 -158.0625 39.675781 -152.617188 28.90625 -141.734375 C 18.144531 -130.859375 9.21875 -118.320312 2.125 -104.125 L 11.53125 -95.609375 C 12.351562 -96.671875 13.117188 -97.851562 13.828125 -99.15625 C 14.546875 -100.457031 15.257812 -101.703125 15.96875 -102.890625 C 21.875 -112.941406 27.488281 -121.304688 32.8125 -127.984375 C 38.132812 -134.671875 43.398438 -138.015625 48.609375 -138.015625 C 51.328125 -138.015625 53.484375 -137.15625 55.078125 -135.4375 C 56.671875 -133.71875 57.46875 -131.5 57.46875 -128.78125 C 57.46875 -126.539062 56.726562 -123.320312 55.25 -119.125 C 53.78125 -114.925781 51.269531 -108.332031 47.71875 -99.34375 C 41.332031 -83.613281 36.273438 -69.832031 32.546875 -58 C 28.828125 -46.175781 26.96875 -35.476562 26.96875 -25.90625 C 26.96875 -6.382812 36.722656 3.375 56.234375 3.375 C 66.992188 3.375 77.898438 -1.859375 88.953125 -12.328125 C 100.015625 -22.796875 110.039062 -34.828125 119.03125 -48.421875 C 128.019531 -62.023438 138.070312 -78.523438 149.1875 -97.921875 C 153.320312 -105.484375 156.867188 -111.632812 159.828125 -116.375 L 162.671875 -114.953125 L 158.234375 -103.234375 L 156.28125 -98.28125 C 150.25 -82.550781 145.425781 -68.65625 141.8125 -56.59375 C 138.207031 -44.53125 136.40625 -33.351562 136.40625 -23.0625 C 136.40625 -15.488281 138.472656 -9.1875 142.609375 -4.15625 C 146.753906 0.863281 152.613281 3.375 160.1875 3.375 C 166.8125 3.375 172.84375 1.894531 178.28125 -1.0625 C 183.71875 -4.019531 188.742188 -8.039062 193.359375 -13.125 C 197.972656 -18.207031 202.9375 -24.769531 208.25 -32.8125 L 218.375 -46.828125 L 208.25 -54.984375 L 197.96875 -40.625 C 191.46875 -31.519531 186.296875 -25.160156 182.453125 -21.546875 C 178.609375 -17.941406 174.554688 -16.140625 170.296875 -16.140625 C 165.441406 -16.140625 163.015625 -19.628906 163.015625 -26.609375 C 163.015625 -30.390625 163.960938 -35.710938 165.859375 -42.578125 L 191.765625 -129.671875 C 192.703125 -133.929688 193.171875 -137.539062 193.171875 -140.5 C 193.171875 -145.34375 192.195312 -149.476562 190.25 -152.90625 C 188.300781 -156.34375 185.550781 -158.0625 182 -158.0625 C 175.96875 -158.0625 170.320312 -155.25 165.0625 -149.625 C 159.800781 -144.007812 153.914062 -136.296875 147.40625 -126.484375 L 142.984375 -119.921875 C 140.847656 -116.722656 136.707031 -110.273438 130.5625 -100.578125 C 115.070312 -75.984375 101.738281 -56.113281 90.5625 -40.96875 C 79.382812 -25.832031 70.835938 -18.265625 64.921875 -18.265625 C 61.960938 -18.265625 59.597656 -19.390625 57.828125 -21.640625 C 56.054688 -23.890625 55.171875 -26.671875 55.171875 -29.984375 C 55.171875 -35.421875 56.378906 -41.984375 58.796875 -49.671875 C 61.222656 -57.359375 64.863281 -67.351562 69.71875 -79.65625 C 75.039062 -93.25 79.0625 -104.453125 81.78125 -113.265625 C 84.5 -122.078125 85.859375 -129.851562 85.859375 -136.59375 Z M 85.859375 -136.59375 "/></g></g><g style="fill:#584876;fill-opacity:1;"><g transform="translate(282.938023, 349.700446)"><path style="stroke:none" d="M 171.890625 -46.828125 C 179.578125 -64.210938 185.664062 -79.554688 190.15625 -92.859375 C 194.65625 -106.171875 196.90625 -117.851562 196.90625 -127.90625 C 196.90625 -137.832031 194.832031 -145.335938 190.6875 -150.421875 C 186.550781 -155.515625 179.578125 -158.0625 169.765625 -158.0625 C 159.585938 -158.0625 148.585938 -152.53125 136.765625 -141.46875 C 124.941406 -130.414062 114.148438 -117.910156 104.390625 -103.953125 C 94.640625 -89.992188 84.382812 -74.265625 73.625 -56.765625 L 66.34375 -45.234375 L 62.96875 -47.1875 L 64.578125 -50.734375 C 66.222656 -54.398438 68.789062 -61.4375 72.28125 -71.84375 C 75.769531 -82.25 78.929688 -93.066406 81.765625 -104.296875 C 84.609375 -115.535156 86.03125 -124.644531 86.03125 -131.625 C 86.03125 -139.070312 84.253906 -144.742188 80.703125 -148.640625 C 77.160156 -152.546875 72.195312 -154.5 65.8125 -154.5 C 57.53125 -154.5 49.898438 -152.367188 42.921875 -148.109375 C 35.953125 -143.859375 29.773438 -138.628906 24.390625 -132.421875 C 19.003906 -126.210938 13.535156 -118.851562 7.984375 -110.34375 L 3.1875 -103.0625 L 13.296875 -94.1875 L 17.03125 -100.046875 C 22.351562 -108.328125 26.726562 -114.800781 30.15625 -119.46875 C 33.582031 -124.144531 37.15625 -128.078125 40.875 -131.265625 C 44.601562 -134.460938 48.242188 -136.0625 51.796875 -136.0625 C 54.515625 -136.0625 56.4375 -135.054688 57.5625 -133.046875 C 58.6875 -131.035156 59.25 -128.847656 59.25 -126.484375 C 59.25 -118.671875 57.148438 -107.285156 52.953125 -92.328125 C 48.753906 -77.367188 43.109375 -59.1875 36.015625 -37.78125 L 34.0625 -31.75 C 31.8125 -25.007812 30.6875 -19.332031 30.6875 -14.71875 C 30.6875 -8.925781 32.132812 -4.460938 35.03125 -1.328125 C 37.925781 1.804688 41.679688 3.375 46.296875 3.375 C 49.015625 3.375 51.789062 2.101562 54.625 -0.4375 C 57.46875 -2.976562 60.015625 -5.90625 62.265625 -9.21875 C 63.328125 -10.875 67.113281 -17.082031 73.625 -27.84375 C 85.5625 -47.476562 96.203125 -64.476562 105.546875 -78.84375 C 114.890625 -93.21875 124.613281 -106.109375 134.71875 -117.515625 C 144.832031 -128.929688 153.320312 -134.640625 160.1875 -134.640625 C 163.144531 -134.640625 165.332031 -133.632812 166.75 -131.625 C 168.164062 -129.613281 168.875 -127.367188 168.875 -124.890625 C 168.875 -122.992188 168.164062 -119.648438 166.75 -114.859375 C 165.332031 -110.066406 162.90625 -102.351562 159.46875 -91.71875 C 153.5625 -73.382812 148.890625 -57.921875 145.453125 -45.328125 C 142.023438 -32.734375 140.3125 -22.59375 140.3125 -14.90625 C 140.3125 -8.632812 141.640625 -4.019531 144.296875 -1.0625 C 146.960938 1.894531 150.25 3.375 154.15625 3.375 C 158.40625 3.375 161.890625 1.894531 164.609375 -1.0625 C 167.335938 -4.019531 170.117188 -8.515625 172.953125 -14.546875 C 188.441406 -42.097656 205.144531 -68.972656 223.0625 -95.171875 C 240.976562 -121.367188 255.257812 -134.46875 265.90625 -134.46875 C 268.863281 -134.46875 271.050781 -133.460938 272.46875 -131.453125 C 273.882812 -129.441406 274.59375 -127.191406 274.59375 -124.703125 C 274.59375 -121.515625 273.765625 -117.492188 272.109375 -112.640625 C 270.460938 -107.796875 267.804688 -100.757812 264.140625 -91.53125 C 258.335938 -77.21875 253.835938 -64.800781 250.640625 -54.28125 C 247.453125 -43.757812 245.859375 -33.765625 245.859375 -24.296875 C 245.859375 -15.898438 248.046875 -9.097656 252.421875 -3.890625 C 256.796875 1.304688 262.828125 3.90625 270.515625 3.90625 C 277.617188 3.90625 284.125 2.222656 290.03125 -1.140625 C 295.945312 -4.515625 301.59375 -9.25 306.96875 -15.34375 C 312.351562 -21.4375 318.59375 -29.625 325.6875 -39.90625 L 329.59375 -45.234375 C 326.394531 -48.066406 323.023438 -50.960938 319.484375 -53.921875 L 317.703125 -50.375 C 315.816406 -47.769531 314.457031 -45.820312 313.625 -44.53125 C 308.539062 -37.425781 304.609375 -32.097656 301.828125 -28.546875 C 299.046875 -25.003906 296.085938 -22.078125 292.953125 -19.765625 C 289.828125 -17.460938 286.546875 -16.3125 283.109375 -16.3125 C 278.023438 -16.3125 275.484375 -20.15625 275.484375 -27.84375 C 275.484375 -33.644531 276.578125 -40.0625 278.765625 -47.09375 C 280.953125 -54.132812 284.296875 -63.390625 288.796875 -74.859375 C 293.765625 -87.515625 297.488281 -98.039062 299.96875 -106.4375 C 302.445312 -114.832031 303.6875 -122.753906 303.6875 -130.203125 C 303.6875 -137.890625 301.644531 -144.421875 297.5625 -149.796875 C 293.488281 -155.179688 287.019531 -157.875 278.15625 -157.875 C 267.15625 -157.875 255.710938 -152.316406 243.828125 -141.203125 C 231.941406 -130.085938 221.265625 -117.640625 211.796875 -103.859375 C 202.335938 -90.085938 192.289062 -74.269531 181.65625 -56.40625 C 178.21875 -50.613281 176.023438 -46.945312 175.078125 -45.40625 Z M 171.890625 -46.828125 "/></g></g><g style="fill:#584876;fill-opacity:1;"><g transform="translate(592.175003, 349.700446)"><path style="stroke:none" d="M 188.75 -50.5625 C 181.882812 -41.445312 175.523438 -33.90625 169.671875 -27.9375 C 163.816406 -21.96875 158.289062 -18.984375 153.09375 -18.984375 C 149.1875 -18.984375 146.375 -20.546875 144.65625 -23.671875 C 142.945312 -26.804688 142.09375 -30.800781 142.09375 -35.65625 C 142.09375 -41.445312 143.007812 -48.304688 144.84375 -56.234375 C 146.675781 -64.160156 149.1875 -73.207031 152.375 -83.375 L 168.703125 -136.40625 C 169.285156 -138.78125 169.578125 -140.320312 169.578125 -141.03125 C 169.578125 -144.457031 168.128906 -147.351562 165.234375 -149.71875 C 162.335938 -152.082031 158.820312 -153.265625 154.6875 -153.265625 C 152.082031 -153.265625 150.007812 -152.582031 148.46875 -151.21875 C 146.9375 -149.863281 145.753906 -147.941406 144.921875 -145.453125 L 137.828125 -122.21875 C 137.472656 -127.1875 135.726562 -132.445312 132.59375 -138 C 129.46875 -143.5625 124.769531 -148.296875 118.5 -152.203125 C 112.226562 -156.109375 104.363281 -158.0625 94.90625 -158.0625 C 80 -158.0625 66.25 -153.238281 53.65625 -143.59375 C 41.0625 -133.957031 31.066406 -121.363281 23.671875 -105.8125 C 16.285156 -90.257812 12.59375 -74.03125 12.59375 -57.125 C 12.59375 -43.519531 14.78125 -32.191406 19.15625 -23.140625 C 23.53125 -14.097656 29.296875 -7.414062 36.453125 -3.09375 C 43.609375 1.21875 51.382812 3.375 59.78125 3.375 C 86.863281 3.375 107.738281 -13.300781 122.40625 -46.65625 C 120.863281 -36.125 120.09375 -29.796875 120.09375 -27.671875 C 120.09375 -19.160156 121.421875 -12.566406 124.078125 -7.890625 C 126.742188 -3.222656 129.644531 -0.125 132.78125 1.40625 C 135.914062 2.945312 138.601562 3.71875 140.84375 3.71875 C 151.957031 3.71875 162.628906 -1.363281 172.859375 -11.53125 C 183.097656 -21.695312 192.707031 -33.460938 201.6875 -46.828125 L 192.109375 -54.984375 Z M 130.203125 -103.421875 C 130.203125 -91.003906 127.210938 -77.9375 121.234375 -64.21875 C 115.265625 -50.5 107.550781 -39.054688 98.09375 -29.890625 C 88.632812 -20.722656 79 -16.140625 69.1875 -16.140625 C 61.019531 -16.140625 54.484375 -20.039062 49.578125 -27.84375 C 44.671875 -35.65625 42.21875 -46.894531 42.21875 -61.5625 C 42.21875 -75.863281 45.144531 -89.132812 51 -101.375 C 56.851562 -113.613281 64.15625 -123.335938 72.90625 -130.546875 C 81.65625 -137.765625 89.875 -141.375 97.5625 -141.375 C 103.476562 -141.375 108.945312 -139.597656 113.96875 -136.046875 C 119 -132.503906 122.960938 -127.804688 125.859375 -121.953125 C 128.753906 -116.097656 130.203125 -109.921875 130.203125 -103.421875 Z M 130.203125 -103.421875 "/></g></g><g style="fill:#584876;fill-opacity:1;"><g transform="translate(327.061922, 518.326989)"><path style="stroke:none" d="M 13.234375 -48.28125 C 10.734375 -48.28125 8.671875 -47.378906 7.046875 -45.578125 C 5.429688 -43.773438 4.625 -41.625 4.625 -39.125 C 4.625 -30.164062 7.304688 -22.453125 12.671875 -15.984375 C 18.035156 -9.515625 24.890625 -4.644531 33.234375 -1.375 C 41.578125 1.894531 50.117188 3.53125 58.859375 3.53125 C 66.796875 3.53125 74.125 2.207031 80.84375 -0.4375 C 87.570312 -3.082031 92.972656 -7.140625 97.046875 -12.609375 C 101.128906 -18.085938 103.171875 -24.867188 103.171875 -32.953125 C 103.171875 -38.765625 101.753906 -44.203125 98.921875 -49.265625 C 96.097656 -54.335938 92.644531 -58.859375 88.5625 -62.828125 C 84.488281 -66.796875 79.179688 -71.460938 72.640625 -76.828125 C 66.765625 -81.753906 62.132812 -85.816406 58.75 -89.015625 C 55.375 -92.210938 52.546875 -95.738281 50.265625 -99.59375 C 47.984375 -103.445312 46.84375 -107.46875 46.84375 -111.65625 C 46.84375 -117.976562 48.804688 -122.976562 52.734375 -126.65625 C 56.671875 -130.332031 61.800781 -132.171875 68.125 -132.171875 C 74.8125 -132.171875 80.0625 -131.210938 83.875 -129.296875 C 87.695312 -127.390625 90.453125 -125.113281 92.140625 -122.46875 C 93.835938 -119.820312 95.421875 -116.476562 96.890625 -112.4375 C 97.847656 -109.789062 98.691406 -107.769531 99.421875 -106.375 C 100.160156 -104.976562 101.171875 -103.800781 102.453125 -102.84375 C 103.742188 -101.882812 105.453125 -101.40625 107.578125 -101.40625 C 110.078125 -101.40625 112.132812 -102.304688 113.75 -104.109375 C 115.375 -105.910156 116.1875 -108.0625 116.1875 -110.5625 C 116.1875 -117.832031 113.851562 -123.945312 109.1875 -128.90625 C 104.519531 -133.875 98.65625 -137.53125 91.59375 -139.875 C 84.539062 -142.226562 77.488281 -143.40625 70.4375 -143.40625 C 63.238281 -143.40625 56.421875 -142.25 49.984375 -139.9375 C 43.554688 -137.625 38.300781 -134.019531 34.21875 -129.125 C 30.144531 -124.238281 28.109375 -118.125 28.109375 -110.78125 C 28.109375 -105.269531 29.484375 -100.050781 32.234375 -95.125 C 34.992188 -90.207031 38.359375 -85.800781 42.328125 -81.90625 C 46.296875 -78.007812 51.550781 -73.378906 58.09375 -68.015625 C 64.039062 -63.015625 68.757812 -58.84375 72.25 -55.5 C 75.738281 -52.15625 78.660156 -48.476562 81.015625 -44.46875 C 83.367188 -40.46875 84.546875 -36.300781 84.546875 -31.96875 C 84.546875 -23.738281 82.320312 -17.617188 77.875 -13.609375 C 73.425781 -9.609375 67.050781 -7.609375 58.75 -7.609375 C 51.03125 -7.609375 44.910156 -8.910156 40.390625 -11.515625 C 35.878906 -14.128906 32.613281 -17.195312 30.59375 -20.71875 C 28.570312 -24.25 26.675781 -28.734375 24.90625 -34.171875 C 23.8125 -37.472656 22.835938 -40.039062 21.984375 -41.875 C 21.140625 -43.71875 20.019531 -45.242188 18.625 -46.453125 C 17.226562 -47.671875 15.429688 -48.28125 13.234375 -48.28125 Z M 13.234375 -48.28125 "/></g></g><g style="fill:#584876;fill-opacity:1;"><g transform="translate(428.833649, 518.326989)"><path style="stroke:none" d="M 36.484375 -18.734375 C 36.484375 -12.117188 41.882812 -8.628906 52.6875 -8.265625 L 51.140625 0 L -5.734375 0 L -6.609375 -2.09375 L -4.1875 -8.265625 C 2.132812 -8.265625 6.984375 -9.382812 10.359375 -11.625 C 13.742188 -13.863281 16.171875 -17.925781 17.640625 -23.8125 C 17.859375 -24.988281 18.1875 -26.273438 18.625 -27.671875 C 31.851562 -81.171875 38.46875 -111.847656 38.46875 -119.703125 C 38.46875 -124.117188 36.882812 -127.078125 33.71875 -128.578125 C 30.5625 -130.085938 26.414062 -130.953125 21.28125 -131.171875 C 21.207031 -131.535156 21.113281 -132.046875 21 -132.703125 C 20.882812 -133.367188 20.828125 -133.925781 20.828125 -134.375 C 20.828125 -136.425781 21.269531 -138.078125 22.15625 -139.328125 L 79.25 -139.328125 L 76.828125 -131.171875 C 71.242188 -131.097656 66.851562 -129.789062 63.65625 -127.25 C 60.457031 -124.71875 58.269531 -120.734375 57.09375 -115.296875 L 48.9375 -76.171875 C 49.96875 -76.972656 51.195312 -77.851562 52.625 -78.8125 C 54.0625 -79.769531 55.550781 -80.835938 57.09375 -82.015625 C 70.320312 -91.421875 81.566406 -99.78125 90.828125 -107.09375 C 100.085938 -114.40625 104.71875 -119.492188 104.71875 -122.359375 C 104.71875 -124.859375 103.597656 -126.859375 101.359375 -128.359375 C 99.117188 -129.867188 96.640625 -130.769531 93.921875 -131.0625 L 95.671875 -139.328125 L 152.109375 -139.328125 L 149.578125 -131.171875 C 145.753906 -130.878906 138.550781 -127.40625 127.96875 -120.75 C 117.394531 -114.101562 107.660156 -107.03125 98.765625 -99.53125 C 89.867188 -92.039062 85.421875 -86.753906 85.421875 -83.671875 C 85.421875 -81.535156 88.195312 -75.414062 93.75 -65.3125 C 99.300781 -55.207031 105.894531 -43.578125 113.53125 -30.421875 L 118.609375 -21.71875 C 121.035156 -17.300781 123.492188 -14.007812 125.984375 -11.84375 C 128.484375 -9.675781 131.867188 -8.484375 136.140625 -8.265625 L 134.59375 0 L 86.09375 0 L 88.40625 -8.15625 C 91.050781 -8.375 93.625 -9.070312 96.125 -10.25 C 98.625 -11.425781 99.875 -13.117188 99.875 -15.328125 C 99.875 -16.421875 97.460938 -21.960938 92.640625 -31.953125 C 87.828125 -41.953125 81.34375 -55.222656 73.1875 -71.765625 L 69.21875 -79.8125 L 46.1875 -63.9375 C 45.375 -60.257812 44.125 -55.59375 42.4375 -49.9375 C 40.53125 -43.25 39.0625 -37.535156 38.03125 -32.796875 C 37 -28.054688 36.484375 -23.367188 36.484375 -18.734375 Z M 36.484375 -18.734375 "/></g></g><g style="fill:#584876;fill-opacity:1;"><g transform="translate(564.444616, 518.326989)"><path style="stroke:none" d="M -6.71875 -2.640625 C -6.71875 -1.691406 -6.390625 -0.8125 -5.734375 0 L 48.9375 0 C 50.039062 -1.101562 50.59375 -2.753906 50.59375 -4.953125 C 50.59375 -5.398438 50.535156 -5.953125 50.421875 -6.609375 C 50.316406 -7.273438 50.226562 -7.789062 50.15625 -8.15625 C 45.375 -8.300781 41.515625 -8.976562 38.578125 -10.1875 C 35.640625 -11.40625 34.171875 -14 34.171875 -17.96875 C 34.171875 -25.976562 35.472656 -36.0625 38.078125 -48.21875 C 40.691406 -60.382812 44.3125 -75.320312 48.9375 -93.03125 C 51.507812 -102.875 53.382812 -110.332031 54.5625 -115.40625 C 55.519531 -119.519531 56.859375 -122.71875 58.578125 -125 C 60.304688 -127.28125 62.546875 -128.878906 65.296875 -129.796875 C 68.054688 -130.710938 71.570312 -131.171875 75.84375 -131.171875 C 77.382812 -133.234375 78.15625 -135.21875 78.15625 -137.125 C 78.15625 -137.488281 78.039062 -137.910156 77.8125 -138.390625 C 77.59375 -138.867188 77.445312 -139.179688 77.375 -139.328125 L 22.703125 -139.328125 C 21.597656 -138.222656 21.046875 -136.570312 21.046875 -134.375 C 21.046875 -133.925781 21.101562 -133.390625 21.21875 -132.765625 C 21.332031 -132.140625 21.425781 -131.609375 21.5 -131.171875 C 26.269531 -131.023438 30.125 -130.363281 33.0625 -129.1875 C 36.007812 -128.007812 37.484375 -125.472656 37.484375 -121.578125 C 37.484375 -113.492188 36.175781 -103.441406 33.5625 -91.421875 C 30.957031 -79.410156 27.265625 -64.148438 22.484375 -45.640625 C 19.179688 -32.921875 17.34375 -25.679688 16.96875 -23.921875 C 15.570312 -17.960938 13.257812 -13.878906 10.03125 -11.671875 C 6.800781 -9.472656 2.023438 -8.375 -4.296875 -8.375 C -4.960938 -7.644531 -5.53125 -6.742188 -6 -5.671875 C -6.476562 -4.609375 -6.71875 -3.597656 -6.71875 -2.640625 Z M -6.71875 -2.640625 "/></g></g><g style="fill:#584876;fill-opacity:1;"><g transform="translate(615.181922, 518.326989)"><path style="stroke:none" d="M 47.28125 0 C 48.457031 -1.175781 49.046875 -2.828125 49.046875 -4.953125 C 49.046875 -5.398438 48.988281 -5.953125 48.875 -6.609375 C 48.769531 -7.273438 48.679688 -7.789062 48.609375 -8.15625 C 44.640625 -8.375 40.722656 -9.085938 36.859375 -10.296875 C 33.003906 -11.515625 31.078125 -13.519531 31.078125 -16.3125 C 31.078125 -18.375 33.023438 -28.273438 36.921875 -46.015625 C 40.816406 -63.765625 45.960938 -87.003906 52.359375 -115.734375 L 55.328125 -128.859375 L 105.046875 2.53125 C 105.484375 3.78125 107.945312 4.40625 112.4375 4.40625 C 115.664062 4.40625 118.382812 4.039062 120.59375 3.3125 L 147.15625 -115.296875 C 148.40625 -120.953125 150.550781 -125.007812 153.59375 -127.46875 C 156.644531 -129.9375 161.078125 -131.171875 166.890625 -131.171875 C 167.921875 -132.203125 168.4375 -133.816406 168.4375 -136.015625 L 168.09375 -139.328125 L 115.078125 -139.328125 L 114.75 -136.015625 C 114.75 -133.816406 115.265625 -132.203125 116.296875 -131.171875 C 120.410156 -131.171875 124.226562 -130.488281 127.75 -129.125 C 131.28125 -127.769531 133.046875 -125.40625 133.046875 -122.03125 C 133.046875 -119.007812 127.390625 -92.585938 116.078125 -42.765625 C 114.085938 -34.390625 112.691406 -28.21875 111.890625 -24.25 L 69.671875 -139.328125 L 21.828125 -139.328125 C 20.796875 -137.046875 20.28125 -134.914062 20.28125 -132.9375 C 20.28125 -132.351562 20.738281 -131.910156 21.65625 -131.609375 C 22.570312 -131.316406 24.097656 -130.988281 26.234375 -130.625 C 30.203125 -129.957031 33.320312 -129.09375 35.59375 -128.03125 C 37.875 -126.96875 39.015625 -125.078125 39.015625 -122.359375 C 39.015625 -120.441406 37.4375 -112.484375 34.28125 -98.484375 C 31.125 -84.484375 26.640625 -64.957031 20.828125 -39.90625 L 17.078125 -23.59375 C 15.753906 -17.78125 13.398438 -13.734375 10.015625 -11.453125 C 6.640625 -9.179688 1.867188 -8.046875 -4.296875 -8.046875 L -6.609375 -1.875 L -5.84375 0.21875 L -5.734375 0 Z M 47.28125 0 "/></g></g></g></g></g></svg>